<svg xmlns="http://www.w3.org/2000/svg" viewBox="0 0 388.11 121.31"><defs><style>.cls-1{fill:none;}.cls-2{isolation:isolate;}.cls-3{fill:#e64c38;}.cls-4{fill:#fff;}</style></defs><g id="Layer_2" data-name="Layer 2"><g id="Layer_2-2" data-name="Layer 2"><rect id="spacer" class="cls-1" width="388.11" height="121.31"/><g id="logo"><g id="Square" class="cls-2"><rect class="cls-3" x="13.31" y="12.13" width="105.09" height="97.24"/></g><g id="M"><polygon class="cls-4" points="67.35 52.58 54.77 35.46 32.05 35.46 32.05 50.98 37.93 50.98 37.93 86.09 54.77 86.09 54.77 68.98 67.35 86.09 79.99 68.98 79.99 86.09 96.95 86.09 96.95 35.46 79.99 35.46 67.35 52.58"/></g><g id="miniclip"><path class="cls-4" d="M316.24,66.66h10.47V35.44H316.24V66.66Zm42.45-28.12a11.58,11.58,0,0,0-8.13-3.1H330.63V66.66H341.1V56.54h9.46a11.7,11.7,0,0,0,8.13-3.06,9.93,9.93,0,0,0,0-14.94m-10.23,9.84H341.1V43.6h7.36c2.1,0,3.14.79,3.11,2.39s-1,2.39-3.11,2.39M291.37,35.44H280.9V66.66h31.4V57.09H291.37V35.44ZM184,66.66H194.5V35.44H184V66.66ZM219.37,43.6q-1.86-3.18-7.27-5.53a33.61,33.61,0,0,0-13.47-2.63h-.2V66.67H208.9V50.82a8.77,8.77,0,0,1,6.19,2.75q4.29,4.16,4.32,13.1h10.47V35.44H219.41l0,8.16ZM253.15,40a14.73,14.73,0,0,0,0,22.08,17.25,17.25,0,0,0,12,4.55H277V57.09H265.18a6.58,6.58,0,0,1-4.63-1.76,5.75,5.75,0,0,1,0-8.56A6.77,6.77,0,0,1,265.18,45H277V35.44H265.18a17.22,17.22,0,0,0-12,4.59M233.77,66.66h10.47V35.44H233.77V66.66ZM161.74,46l-7.82-10.55H139.79V45h3.66V66.66h10.47V56.11l7.82,10.55,7.86-10.55V66.66h10.55V35.44H169.6L161.74,46Z"/></g><g id="play_games" data-name="play games"><path class="cls-4" d="M147.05,81.78h-1.69v4.34h-1.89V74.81h3.58a3.49,3.49,0,1,1,0,7Zm0-5.16h-1.66V80H147a1.68,1.68,0,1,0,0-3.35Zm5.55,9.5V74.81h1.89v9.5h4.34v1.81Zm16.51,0-1-2.79h-4.29l-1,2.79h-2.1l4.21-11.31H167l4.21,11.31Zm-3.15-8.83-1.54,4.23h3.07l-1.53-4.23Zm10.81,3.91v4.92h-1.89V81.18l-3.69-6.37h2.13l2.51,4.48,2.5-4.48h2.12l-3.68,6.39Zm13.68-.3V79.18h5.4a8.09,8.09,0,0,1,.13,1.57,5.27,5.27,0,0,1-5.5,5.56,5.6,5.6,0,0,1-5.62-5.84,5.69,5.69,0,0,1,5.87-5.84,7.74,7.74,0,0,1,3.06.59V77.3a6.28,6.28,0,0,0-3.06-.78,3.94,3.94,0,0,0-.2,7.88,3.17,3.17,0,0,0,3.4-3.11,2.68,2.68,0,0,0,0-.4h-3.46ZM206,86.12l-1-2.79h-4.29l-1,2.79h-2.1l4.21-11.31h2.11l4.21,11.31Zm-3.15-8.83-1.54,4.23h3.06l-1.52-4.23Zm17.06,8.83V78.29l-3.14,7.83h-1.65L212,78.29v7.83h-1.89V74.81h2.29l3.57,8.9,3.58-8.9h2.27V86.12ZM230,84.31v1.81h-6.23V74.81H230v1.82h-4.34v2.89h4v1.81h-4v3Zm3.95-6.61c0,.49.31.89.93,1.27l1.72,1.08a3.33,3.33,0,0,1,2,3c0,1.7-1.2,3.24-3.68,3.24a6.41,6.41,0,0,1-2.82-.65V83.52a4.64,4.64,0,0,0,2.74,1c1.14,0,1.74-.6,1.74-1.35,0-.5-.32-.93-1.05-1.38l-1.76-1.08a3.12,3.12,0,0,1-1.84-2.93c0-1.51,1-3.14,3.73-3.14a5.47,5.47,0,0,1,2.42.58v2.06a4.24,4.24,0,0,0-2.45-.84c-1.07,0-1.67.54-1.67,1.28Z"/></g></g></g></g></svg>